<svg width="1174" height="900" viewBox="0 0 1174 900" fill="none" xmlns="http://www.w3.org/2000/svg">
<path d="M606.554 128.107C700.179 113.891 822.166 84.995 899.28 127.989C976.236 171.074 1008.5 286.367 1006.73 399.91C1004.81 513.544 968.931 625.586 897.76 701.429C826.589 777.271 719.713 816.939 623.765 811.73C527.658 806.613 442.138 756.394 349.74 709.297C257.501 662.109 158.135 617.977 116.272 541.069C74.2506 464.252 89.825 354.818 143.727 282.8C197.537 210.624 289.9 175.522 368.725 158.407C447.484 141.543 512.838 142.165 606.554 128.107Z" fill="url(#paint0_linear)"/>
<defs>
<linearGradient id="paint0_linear" x1="95.4272" y1="399.474" x2="1012.78" y2="407.949" gradientUnits="userSpaceOnUse">
<stop stop-color="#FF7BAC"/>
<stop offset="1" stop-color="#F7931E"/>
</linearGradient>
</defs>
</svg>
