<svg width="36" height="48" viewBox="0 0 36 48" fill="none" xmlns="http://www.w3.org/2000/svg">
<path fill-rule="evenodd" clip-rule="evenodd" d="M22.577 10.5829C22.577 5.84267 20.9454 0 20.9454 0C29.5661 6.90096 35.2765 17.506 35.2765 29.3897C35.2765 39.1349 27.3834 47.028 17.6382 47.028C7.89312 47.028 0 39.1349 0 29.3897C0 21.9376 2.66779 15.0807 7.12144 9.78923L7.0553 10.5829C7.0553 15.1248 10.4948 18.8068 15.0587 18.8068C19.6005 18.8068 22.577 15.1248 22.577 10.5829ZM9.8995 33.4906C9.8995 37.327 13.0744 40.4137 16.9989 40.4137C22.8416 40.4137 27.5818 35.6734 27.5818 29.8307C27.5818 26.7661 27.1409 23.7676 26.281 20.9234C24.0321 23.9439 19.9974 25.818 16.0949 26.6117C12.2145 27.4055 9.8995 29.9189 9.8995 33.4906Z" fill="url(#paint0_linear)"/>
<defs>
<linearGradient id="paint0_linear" x1="17.6382" y1="0" x2="17.6382" y2="47.028" gradientUnits="userSpaceOnUse">
<stop stop-color="#FF7BAC"/>
<stop offset="1" stop-color="#F99826"/>
</linearGradient>
</defs>
</svg>
