<svg width="61" height="42" viewBox="0 0 61 42" fill="none" xmlns="http://www.w3.org/2000/svg">
<g clip-path="url(#clip0)">
<path d="M45.1745 0.116851C45.9837 0.308376 46.7044 0.767737 47.2197 1.42039C47.7406 2.06976 48.0188 2.88044 48.0063 3.71283L47.9614 37.7398C47.9691 38.225 47.8774 38.7066 47.6918 39.155C47.5063 39.6034 47.2309 40.009 46.8826 40.3469C46.5376 40.6982 46.1243 40.9751 45.6682 41.1606C45.2121 41.3462 44.7228 41.4364 44.2305 41.4257C43.7464 41.4259 43.267 41.3308 42.8197 41.1457C42.3723 40.9606 41.9659 40.6891 41.6236 40.3468C41.2813 40.0044 41.0098 39.598 40.8246 39.1506C40.6395 38.7033 40.5444 38.2239 40.5447 37.7398L40.5896 19.3553L33.6067 33.2448C33.5933 33.2558 33.5824 33.2695 33.5746 33.285C33.5669 33.3005 33.5625 33.3174 33.5617 33.3347C33.5591 33.3694 33.543 33.4017 33.5168 33.4246C33.4561 33.4853 33.4269 33.5302 33.4269 33.5594C33.4276 33.5655 33.4269 33.5717 33.4249 33.5775C33.4229 33.5833 33.4196 33.5885 33.4153 33.5928C33.411 33.5972 33.4057 33.6004 33.3999 33.6025C33.3942 33.6045 33.388 33.6051 33.3819 33.6044C33.3819 33.6336 33.3505 33.6786 33.2898 33.7393V33.7842L33.1999 33.8741L33.1549 33.9191C33.1549 33.9483 33.1549 33.964 33.1325 33.964C33.11 33.964 33.11 33.9797 33.11 34.0089C33.11 34.0382 33.065 34.009 33.065 34.0314C33.065 34.0539 33.0493 34.0539 33.0201 34.0539C32.9909 34.0539 33.0201 34.0989 32.9976 34.0989C32.9751 34.0989 32.9751 34.1146 32.9751 34.1438C32.9751 34.173 32.9302 34.1438 32.9302 34.1663C32.9302 34.1887 32.9144 34.1888 32.8852 34.1888C32.8826 34.2235 32.8665 34.2557 32.8403 34.2786L32.7504 34.3236C32.7511 34.3297 32.7504 34.3358 32.7484 34.3416C32.7464 34.3474 32.7431 34.3527 32.7388 34.357C32.7345 34.3613 32.7292 34.3646 32.7235 34.3666C32.7177 34.3686 32.7115 34.3693 32.7054 34.3686L32.6155 34.4584L32.5706 34.5034L32.4807 34.5933H32.4357C32.375 34.654 32.3301 34.6832 32.2986 34.6832L32.2559 34.7281C32.2245 34.7281 32.1795 34.7574 32.1188 34.8181L31.939 34.9079C31.9207 34.924 31.8993 34.9362 31.8761 34.944C31.853 34.9517 31.8285 34.9547 31.8042 34.9529L31.7592 34.9978C31.747 34.9965 31.7347 34.9979 31.7231 35.0017C31.7114 35.0056 31.7008 35.0119 31.6918 35.0203C31.6827 35.0284 31.672 35.0346 31.6604 35.0385C31.6488 35.0424 31.6366 35.0438 31.6244 35.0428C31.1962 35.2179 30.7385 35.3094 30.2759 35.3125H30.2309L30.186 35.2675H29.7365C29.688 35.2412 29.6343 35.2258 29.5792 35.2226C29.5241 35.2194 29.4703 35.204 29.4219 35.1776H29.2892C29.2511 35.1455 29.2019 35.1294 29.1522 35.1327L29.1072 35.0877C29.0725 35.0851 29.0402 35.069 29.0173 35.0428H28.9724C28.941 35.0428 28.9101 35.0351 28.8825 35.0203C28.8548 35.0056 28.8239 34.9978 28.7926 34.9978V34.9529C28.7804 34.9539 28.7681 34.9525 28.7565 34.9486C28.7449 34.9447 28.7343 34.9386 28.7251 34.9304C28.716 34.9223 28.7053 34.9161 28.6937 34.9122C28.6821 34.9084 28.6699 34.9069 28.6577 34.9079H28.615C28.5713 34.8595 28.5177 34.8212 28.4577 34.7956C28.4039 34.7764 28.3513 34.7539 28.3004 34.7281L28.1633 34.5933C28.134 34.5933 28.0891 34.5641 28.0284 34.5034H27.9835L27.8486 34.3686C27.8194 34.3393 27.7969 34.3236 27.7812 34.3236C27.7655 34.3236 27.743 34.3079 27.7138 34.2786V34.2337L27.6239 34.1438H27.5789C27.5474 34.1146 27.534 34.0921 27.534 34.0764C27.534 34.0606 27.5182 34.0382 27.489 34.0089L27.4441 33.964C27.4441 33.9348 27.4441 33.9191 27.4216 33.9191C27.3991 33.9191 27.3991 33.9033 27.3991 33.8741C27.393 33.8748 27.3869 33.8742 27.3811 33.8722C27.3753 33.8702 27.3701 33.8669 27.3657 33.8625C27.3614 33.8582 27.3581 33.853 27.3561 33.8472C27.3541 33.8414 27.3534 33.8352 27.3542 33.8292L27.2643 33.7393C27.2629 33.7218 27.2581 33.7049 27.25 33.6894C27.2418 33.674 27.2306 33.6603 27.2171 33.6494L27.1721 33.6044C27.1721 33.5752 27.1721 33.5594 27.1519 33.5594C27.1317 33.5594 27.1272 33.5437 27.1272 33.5145L27.0822 33.4696C27.0815 33.4525 27.0773 33.4357 27.07 33.4203C27.0626 33.4048 27.0523 33.391 27.0395 33.3797C27.0382 33.3622 27.0333 33.3453 27.0252 33.3298C27.0171 33.3144 27.0059 33.3007 26.9923 33.2898V33.2448L20.0026 19.3508V37.7353C20.0114 38.2182 19.9228 38.6979 19.742 39.1459C19.5613 39.5938 19.2922 40.0007 18.9508 40.3424C18.6091 40.6843 18.2034 40.9556 17.7568 41.1407C17.3103 41.3257 16.8316 41.421 16.3482 41.421C15.8648 41.421 15.3862 41.3257 14.9396 41.1407C14.493 40.9556 14.0873 40.6843 13.7456 40.3424C13.3994 40.0034 13.1259 39.5974 12.942 39.1491C12.758 38.7008 12.6675 38.2198 12.6758 37.7353L12.5859 3.70834C12.5723 2.87578 12.8506 2.06472 13.3725 1.41591C13.8993 0.754683 14.6372 0.294489 15.4627 0.112366C16.2656 -0.1003 17.1179 -0.0206418 17.8675 0.337114C18.6242 0.689656 19.2357 1.29315 19.5981 2.0452L30.2961 23.3514L41.0391 2.0452C41.4001 1.29216 42.012 0.688258 42.7697 0.337114C43.5198 -0.0193316 44.3721 -0.0974106 45.1745 0.116851Z" fill="url(#paint0_linear)"/>
<path d="M6.24581 7.52009C5.90454 7.17786 5.49778 6.90793 5.04984 6.72643C4.6019 6.54494 4.12196 6.4556 3.63872 6.46377C3.1591 6.45804 2.68318 6.54832 2.23898 6.72929C1.79478 6.91026 1.39127 7.17827 1.05221 7.51754C0.713148 7.85681 0.445387 8.26048 0.26469 8.7048C0.0839923 9.14911 -0.00598988 9.62509 4.00508e-05 10.1047V31.321C-0.00598988 31.8006 0.0839923 32.2766 0.26469 32.7209C0.445387 33.1652 0.713148 33.5689 1.05221 33.9082C1.39127 34.2474 1.79478 34.5154 2.23898 34.6964C2.68318 34.8774 3.1591 34.9677 3.63872 34.9619C4.12196 34.9701 4.6019 34.8808 5.04984 34.6993C5.49778 34.5178 5.90454 34.2478 6.24581 33.9056C6.59534 33.5734 6.87179 33.172 7.05754 32.727C7.24328 32.2819 7.33423 31.8031 7.3246 31.321V10.1047C7.33423 9.62258 7.24328 9.14374 7.05754 8.69873C6.87179 8.25372 6.59534 7.8523 6.24581 7.52009Z" fill="#FF7BAC"/>
<path d="M59.5112 7.52009C59.1699 7.17786 58.7632 6.90793 58.3152 6.72643C57.8673 6.54494 57.3874 6.4556 56.9041 6.46377C56.4245 6.45804 55.9486 6.54832 55.5044 6.72929C55.0602 6.91026 54.6567 7.17827 54.3176 7.51754C53.9785 7.85681 53.7108 8.26048 53.5301 8.7048C53.3494 9.14911 53.2594 9.62509 53.2654 10.1047V31.321C53.2594 31.8006 53.3494 32.2766 53.5301 32.7209C53.7108 33.1652 53.9785 33.5689 54.3176 33.9082C54.6567 34.2474 55.0602 34.5154 55.5044 34.6964C55.9486 34.8774 56.4245 34.9677 56.9041 34.9619C57.3874 34.9701 57.8673 34.8808 58.3152 34.6993C58.7632 34.5178 59.1699 34.2478 59.5112 33.9056C59.8607 33.5734 60.1372 33.172 60.3229 32.727C60.5087 32.2819 60.5996 31.8031 60.59 31.321V10.1047C60.5996 9.62258 60.5087 9.14374 60.3229 8.69873C60.1372 8.25372 59.8607 7.8523 59.5112 7.52009Z" fill="#F7931E"/>
</g>
<defs>
<linearGradient id="paint0_linear" x1="9.21694" y1="8.5337" x2="51.3573" y2="32.8627" gradientUnits="userSpaceOnUse">
<stop stop-color="#FF7BAC"/>
<stop offset="0.13" stop-color="#FE7DA3"/>
<stop offset="0.35" stop-color="#FD818A"/>
<stop offset="0.62" stop-color="#FB8861"/>
<stop offset="0.94" stop-color="#F89129"/>
<stop offset="1" stop-color="#F7931E"/>
</linearGradient>
<clipPath id="clip0">
<rect width="60.59" height="41.4234" fill="white"/>
</clipPath>
</defs>
</svg>
