<svg width="215" height="148" viewBox="0 0 215 148" fill="none" xmlns="http://www.w3.org/2000/svg">
<g clip-path="url(#clip0)">
<path d="M160.299 0.41743C163.17 1.10172 165.728 2.74295 167.556 5.07479C169.405 7.39489 170.392 10.2913 170.348 13.2653L170.188 134.839C170.216 136.572 169.89 138.293 169.232 139.895C168.573 141.497 167.596 142.946 166.36 144.154C165.136 145.409 163.669 146.398 162.051 147.061C160.432 147.724 158.696 148.046 156.949 148.008C155.232 148.009 153.53 147.669 151.943 147.008C150.356 146.346 148.914 145.376 147.699 144.153C146.484 142.93 145.521 141.478 144.864 139.88C144.207 138.281 143.869 136.568 143.87 134.839L144.03 69.1538L119.251 118.779C119.204 118.818 119.165 118.867 119.138 118.922C119.11 118.978 119.095 119.038 119.092 119.1C119.083 119.224 119.025 119.339 118.932 119.421C118.717 119.638 118.613 119.799 118.613 119.903C118.616 119.925 118.613 119.947 118.606 119.967C118.599 119.988 118.588 120.007 118.572 120.022C118.557 120.038 118.538 120.05 118.518 120.057C118.497 120.064 118.475 120.066 118.454 120.064C118.454 120.168 118.342 120.329 118.127 120.546V120.706L117.808 121.027L117.648 121.188C117.648 121.292 117.648 121.349 117.569 121.349C117.489 121.349 117.489 121.405 117.489 121.509C117.489 121.613 117.329 121.509 117.329 121.589C117.329 121.67 117.273 121.67 117.17 121.67C117.066 121.67 117.17 121.83 117.09 121.83C117.01 121.83 117.01 121.886 117.01 121.991C117.01 122.095 116.851 121.991 116.851 122.071C116.851 122.151 116.795 122.151 116.691 122.151C116.682 122.275 116.625 122.391 116.532 122.473L116.213 122.633C116.215 122.655 116.213 122.677 116.206 122.698C116.199 122.718 116.187 122.737 116.172 122.753C116.156 122.768 116.138 122.78 116.117 122.787C116.097 122.794 116.075 122.796 116.053 122.794L115.734 123.115L115.575 123.276L115.256 123.597H115.096C114.881 123.814 114.721 123.918 114.61 123.918L114.458 124.079C114.347 124.079 114.187 124.183 113.972 124.4L113.334 124.721C113.269 124.778 113.193 124.822 113.111 124.85C113.028 124.877 112.942 124.888 112.855 124.882L112.696 125.042C112.653 125.038 112.609 125.042 112.567 125.056C112.526 125.07 112.488 125.093 112.457 125.123C112.424 125.152 112.386 125.174 112.345 125.188C112.304 125.201 112.26 125.207 112.217 125.203C110.698 125.828 109.074 126.155 107.432 126.166H107.273L107.113 126.006H105.518C105.346 125.912 105.156 125.857 104.96 125.845C104.764 125.834 104.574 125.779 104.402 125.685H103.931C103.796 125.57 103.621 125.512 103.445 125.524L103.285 125.363C103.162 125.354 103.047 125.296 102.966 125.203H102.807C102.695 125.203 102.586 125.175 102.488 125.123C102.39 125.07 102.28 125.042 102.169 125.042V124.882C102.125 124.885 102.082 124.88 102.041 124.866C102 124.853 101.962 124.83 101.929 124.801C101.897 124.772 101.859 124.75 101.818 124.736C101.777 124.723 101.733 124.717 101.69 124.721H101.539C101.384 124.548 101.193 124.411 100.98 124.32C100.79 124.251 100.603 124.171 100.422 124.079L99.9357 123.597C99.832 123.597 99.6725 123.492 99.4572 123.276H99.2977L98.8192 122.794C98.7155 122.689 98.6357 122.633 98.5799 122.633C98.5241 122.633 98.4443 122.577 98.3407 122.473V122.312L98.0217 121.991H97.8622C97.7505 121.886 97.7027 121.806 97.7027 121.75C97.7027 121.694 97.6468 121.613 97.5432 121.509L97.3836 121.349C97.3836 121.244 97.3837 121.188 97.3039 121.188C97.2241 121.188 97.2241 121.132 97.2241 121.027C97.2026 121.03 97.1807 121.027 97.1602 121.02C97.1397 121.013 97.121 121.001 97.1057 120.986C97.0903 120.971 97.0787 120.952 97.0715 120.931C97.0644 120.91 97.0621 120.888 97.0646 120.867L96.7456 120.546C96.7409 120.483 96.7237 120.423 96.6949 120.367C96.6661 120.312 96.6263 120.264 96.5782 120.224L96.4187 120.064C96.4187 119.959 96.4187 119.903 96.3469 119.903C96.2751 119.903 96.2592 119.847 96.2592 119.743L96.0997 119.582C96.097 119.521 96.0822 119.461 96.0561 119.406C96.0301 119.351 95.9934 119.301 95.9481 119.261C95.9434 119.198 95.9261 119.138 95.8973 119.083C95.8685 119.027 95.8288 118.979 95.7807 118.94V118.779L70.9782 69.1377V134.823C71.0092 136.548 70.6948 138.262 70.0535 139.863C69.4122 141.463 68.4574 142.917 67.2458 144.137C66.0334 145.359 64.5938 146.328 63.0091 146.99C61.4245 147.651 59.726 147.991 58.0107 147.991C56.2954 147.991 54.5969 147.651 53.0123 146.99C51.4277 146.328 49.988 145.359 48.7756 144.137C47.5469 142.926 46.5765 141.476 45.9238 139.874C45.2711 138.273 44.9498 136.554 44.9794 134.823L44.6604 13.2493C44.6122 10.2747 45.5997 7.37687 47.4517 5.05876C49.3208 2.69631 51.9392 1.0521 54.8685 0.401403C57.7175 -0.358421 60.742 -0.0738138 63.4019 1.2044C66.087 2.46398 68.2567 4.62018 69.5427 7.30714L107.504 83.4311L145.625 7.30714C146.906 4.61664 149.077 2.45898 151.766 1.2044C154.427 -0.0691326 157.452 -0.348098 160.299 0.41743Z" fill="white"/>
<path d="M22.1628 26.8682C20.9518 25.6454 19.5085 24.681 17.919 24.0326C16.3295 23.3841 14.6265 23.0649 12.9117 23.0941C11.2098 23.0736 9.52104 23.3962 7.94482 24.0428C6.36859 24.6894 4.93676 25.6469 3.73363 26.8591C2.53049 28.0713 1.58036 29.5135 0.939163 31.101C0.29797 32.6885 -0.0213268 34.3891 7.00207e-05 36.1027V111.905C-0.0213268 113.619 0.29797 115.32 0.939163 116.907C1.58036 118.495 2.53049 119.937 3.73363 121.149C4.93676 122.361 6.36859 123.319 7.94482 123.965C9.52104 124.612 11.2098 124.934 12.9117 124.914C14.6265 124.943 16.3295 124.624 17.919 123.976C19.5085 123.327 20.9518 122.363 22.1628 121.14C23.4031 119.953 24.3841 118.519 25.0432 116.929C25.7023 115.339 26.025 113.628 25.9908 111.905V36.1027C26.025 34.3801 25.7023 32.6693 25.0432 31.0793C24.3841 29.4894 23.4031 28.0551 22.1628 26.8682Z" fill="white"/>
<path d="M211.172 26.8682C209.961 25.6454 208.518 24.681 206.928 24.0326C205.339 23.3841 203.636 23.0649 201.921 23.0941C200.219 23.0736 198.53 23.3962 196.954 24.0428C195.378 24.6894 193.946 25.6469 192.743 26.8591C191.54 28.0713 190.589 29.5135 189.948 31.101C189.307 32.6885 188.988 34.3891 189.009 36.1027V111.905C188.988 113.619 189.307 115.32 189.948 116.907C190.589 118.495 191.54 119.937 192.743 121.149C193.946 122.361 195.378 123.319 196.954 123.965C198.53 124.612 200.219 124.934 201.921 124.914C203.636 124.943 205.339 124.624 206.928 123.976C208.518 123.327 209.961 122.363 211.172 121.14C212.412 119.953 213.393 118.519 214.052 116.929C214.711 115.339 215.034 113.628 215 111.905V36.1027C215.034 34.3801 214.711 32.6693 214.052 31.0793C213.393 29.4894 212.412 28.0551 211.172 26.8682Z" fill="white"/>
</g>
<defs>
<clipPath id="clip0">
<rect width="215" height="148" fill="white"/>
</clipPath>
</defs>
</svg>
